<svg width="584.1400024414062px" height="176.03999023437498px" xmlns="http://www.w3.org/2000/svg" viewBox="-42.07000122070309 -13.019995117187491 584.1400024414062 176.03999023437498" style="background: rgba(0, 0, 0, 0) none repeat scroll 0% 0%;" preserveAspectRatio="xMidYMid"><defs><filter id="editing-vr"><feFlood flood-color="#f00" flood-opacity="0.7" result="c1"></feFlood><feFlood flood-color="#00f" flood-opacity="0.7" result="c3"></feFlood><feComposite operator="in" in="c1" in2="SourceAlpha" result="text-c1"></feComposite><feComposite operator="in" in="c3" in2="SourceAlpha" result="text-c3"></feComposite><feOffset in="text-c1" dx="5" dy="-1" result="text1"></feOffset><feOffset in="text-c3" dx="-5" dy="1" result="text3"></feOffset><feBlend in="SourceGraphic" in2="text1" mode="multiply" result="text4"></feBlend><feBlend in="text4" in2="text3" mode="multiply"></feBlend></filter></defs><g filter="url(#editing-vr)"><g transform="translate(43.82647657394409, 103.93000030517578)"><path d="M62.34-14.27L62.34-14.27Q63.17-14.27 63.65-13.50L63.65-13.50L63.65-13.50Q64.13-12.74 64.13-11.39L64.13-11.39L64.13-11.39Q64.13-8.90 62.91-7.42L62.91-7.42L62.91-7.42Q56.58 0.32 49.41 0.32L49.41 0.32L49.41 0.32Q43.20 0.32 39.49-4.48L39.49-4.48L39.49-4.48Q35.78-9.28 35.78-18.24L35.78-18.24L35.78-18.24Q35.78-20.42 35.97-22.59L35.97-22.59L35.97-22.59Q31.74-21.82 26.75-21.44L26.75-21.44L26.75-21.44Q23.42-21.18 22.21-21.12L22.21-21.12L22.21-21.12Q20.93-14.59 18.62-5.12L18.62-5.12L18.62-5.12Q17.28 0.45 13.50 0.45L13.50 0.45L13.50 0.45Q9.41 0.45 9.41-3.26L9.41-3.26L9.41-3.26Q9.41-4.10 9.73-5.57L9.73-5.57L9.73-5.57Q11.90-14.34 13.18-20.42L13.18-20.42L10.11-20.29L10.11-20.29Q8-20.29 7.04-21.02L7.04-21.02L7.04-21.02Q6.08-21.76 6.08-23.42L6.08-23.42L6.08-23.42Q6.08-25.54 7.30-26.53L7.30-26.53L7.30-26.53Q8.51-27.52 11.33-27.65L11.33-27.65L14.72-27.78L14.72-27.78Q16.38-36.80 16.38-41.54L16.38-41.54L16.38-41.54Q16.38-44.54 15.49-45.63L15.49-45.63L15.49-45.63Q14.59-46.72 13.12-46.72L13.12-46.72L13.12-46.72Q8.64-46.72 3.01-39.23L3.01-39.23L3.01-39.23Q2.18-38.14 1.15-38.14L1.15-38.14L1.15-38.14Q0.26-38.14-0.38-38.98L-0.38-38.98L-0.38-38.98Q-1.02-39.81-1.02-41.09L-1.02-41.09L-1.02-41.09Q-1.02-43.07 0.58-45.31L0.58-45.31L0.58-45.31Q3.39-49.22 7.68-51.74L7.68-51.74L7.68-51.74Q11.97-54.27 16.38-54.27L16.38-54.27L16.38-54.27Q20.54-54.27 22.82-51.42L22.82-51.42L22.82-51.42Q25.09-48.58 25.09-42.56L25.09-42.56L25.09-42.56Q25.09-37.25 23.55-28.16L23.55-28.16L29.82-28.48L29.82-28.48Q33.86-28.67 36.74-29.12L36.74-29.12L36.74-29.12Q37.89-36.16 40.26-42.30L40.26-42.30L40.26-42.30Q42.62-48.45 46.14-52.29L46.14-52.29L46.14-52.29Q49.66-56.13 54.02-56.13L54.02-56.13L54.02-56.13Q57.22-56.13 59.07-53.60L59.07-53.60L59.07-53.60Q60.93-51.07 60.93-46.98L60.93-46.98L60.93-46.98Q60.93-31.10 44.74-24.96L44.74-24.96L44.74-24.96Q44.54-22.40 44.54-19.65L44.54-19.65L44.54-19.65Q44.54-12.93 46.21-10.11L46.21-10.11L46.21-10.11Q47.87-7.30 50.88-7.30L50.88-7.30L50.88-7.30Q53.50-7.30 55.68-8.67L55.68-8.67L55.68-8.67Q57.86-10.05 60.61-13.38L60.61-13.38L60.61-13.38Q61.38-14.27 62.34-14.27L62.34-14.27ZM53.70-50.56L53.70-50.56Q52.29-50.56 50.72-48L50.72-48L50.72-48Q49.15-45.44 47.74-41.02L47.74-41.02L47.74-41.02Q46.34-36.61 45.50-31.36L45.50-31.36L45.50-31.36Q50.62-33.47 53.06-37.38L53.06-37.38L53.06-37.38Q55.49-41.28 55.49-47.42L55.49-47.42L55.49-47.42Q55.49-48.90 54.98-49.73L54.98-49.73L54.98-49.73Q54.46-50.56 53.70-50.56L53.70-50.56ZM91.58-19.65L91.58-19.65Q92.42-19.65 92.86-18.82L92.86-18.82L92.86-18.82Q93.31-17.98 93.31-16.70L93.31-16.70L93.31-16.70Q93.31-13.63 91.46-13.06L91.46-13.06L91.46-13.06Q87.62-11.71 83.01-11.52L83.01-11.52L83.01-11.52Q81.79-6.14 78.21-2.91L78.21-2.91L78.21-2.91Q74.62 0.32 70.08 0.32L70.08 0.32L70.08 0.32Q66.24 0.32 63.52-1.54L63.52-1.54L63.52-1.54Q60.80-3.39 59.39-6.46L59.39-6.46L59.39-6.46Q57.98-9.54 57.98-13.12L57.98-13.12L57.98-13.12Q57.98-17.98 59.84-21.79L59.84-21.79L59.84-21.79Q61.70-25.60 64.96-27.74L64.96-27.74L64.96-27.74Q68.22-29.89 72.19-29.89L72.19-29.89L72.19-29.89Q77.06-29.89 80.03-26.53L80.03-26.53L80.03-26.53Q83.01-23.17 83.52-18.24L83.52-18.24L83.52-18.24Q86.53-18.43 90.69-19.52L90.69-19.52L90.69-19.52Q91.20-19.65 91.58-19.65L91.58-19.65ZM70.59-6.46L70.59-6.46Q72.64-6.46 74.14-8.13L74.14-8.13L74.14-8.13Q75.65-9.79 76.16-12.93L76.16-12.93L76.16-12.93Q74.18-14.27 73.12-16.45L73.12-16.45L73.12-16.45Q72.06-18.62 72.06-21.06L72.06-21.06L72.06-21.06Q72.06-22.08 72.26-23.10L72.26-23.10L71.94-23.10L71.94-23.10Q69.38-23.10 67.68-20.64L67.68-20.64L67.68-20.64Q65.98-18.18 65.98-13.70L65.98-13.70L65.98-13.70Q65.98-10.18 67.36-8.32L67.36-8.32L67.36-8.32Q68.74-6.46 70.59-6.46L70.59-6.46ZM92.35 0.32L92.35 0.32Q89.92 0.32 88.93-2.24L88.93-2.24L88.93-2.24Q87.94-4.80 87.94-10.43L87.94-10.43L87.94-10.43Q87.94-18.75 90.30-26.24L90.30-26.24L90.30-26.24Q90.88-28.10 92.19-28.96L92.19-28.96L92.19-28.96Q93.50-29.82 95.87-29.82L95.87-29.82L95.87-29.82Q97.15-29.82 97.66-29.50L97.66-29.50L97.66-29.50Q98.18-29.18 98.18-28.29L98.18-28.29L98.18-28.29Q98.18-27.26 97.22-23.68L97.22-23.68L97.22-23.68Q96.58-21.12 96.19-19.23L96.19-19.23L96.19-19.23Q95.81-17.34 95.55-14.53L95.55-14.53L95.55-14.53Q97.28-19.52 99.68-22.98L99.68-22.98L99.68-22.98Q102.08-26.43 104.61-28.13L104.61-28.13L104.61-28.13Q107.14-29.82 109.38-29.82L109.38-29.82L109.38-29.82Q111.62-29.82 112.54-28.80L112.54-28.80L112.54-28.80Q113.47-27.78 113.47-25.66L113.47-25.66L113.47-25.66Q113.47-23.62 112.26-18.24L112.26-18.24L112.26-18.24Q111.74-15.94 111.55-14.78L111.55-14.78L111.55-14.78Q114.75-22.66 118.66-26.24L118.66-26.24L118.66-26.24Q122.56-29.82 125.95-29.82L125.95-29.82L125.95-29.82Q130.11-29.82 130.11-25.66L130.11-25.66L130.11-25.66Q130.11-23.17 128.70-16.64L128.70-16.64L128.70-16.64Q127.49-11.07 127.49-9.28L127.49-9.28L127.49-9.28Q127.49-6.72 129.34-6.72L129.34-6.72L129.34-6.72Q130.62-6.72 132.38-8.29L132.38-8.29L132.38-8.29Q134.14-9.86 137.09-13.38L137.09-13.38L137.09-13.38Q137.86-14.27 138.82-14.27L138.82-14.27L138.82-14.27Q139.65-14.27 140.13-13.50L140.13-13.50L140.13-13.50Q140.61-12.74 140.61-11.39L140.61-11.39L140.61-11.39Q140.61-8.83 139.39-7.42L139.39-7.42L139.39-7.42Q136.64-4.03 133.47-1.86L133.47-1.86L133.47-1.86Q130.30 0.32 126.27 0.32L126.27 0.32L126.27 0.32Q123.01 0.32 121.34-1.57L121.34-1.57L121.34-1.57Q119.68-3.46 119.68-7.04L119.68-7.04L119.68-7.04Q119.68-8.83 120.58-13.44L120.58-13.44L120.58-13.44Q121.41-17.47 121.41-19.01L121.41-19.01L121.41-19.01Q121.41-20.03 120.70-20.03L120.70-20.03L120.70-20.03Q119.87-20.03 118.34-17.89L118.34-17.89L118.34-17.89Q116.80-15.74 115.26-12.22L115.26-12.22L115.26-12.22Q113.73-8.70 112.77-4.80L112.77-4.80L112.77-4.80Q112.06-1.73 111.14-0.70L111.14-0.70L111.14-0.70Q110.21 0.32 108.16 0.32L108.16 0.32L108.16 0.32Q106.05 0.32 104.99-1.70L104.99-1.70L104.99-1.70Q103.94-3.71 103.94-6.59L103.94-6.59L103.94-6.59Q103.94-9.02 104.58-13.63L104.58-13.63L104.58-13.63Q105.09-17.73 105.09-19.01L105.09-19.01L105.09-19.01Q105.09-20.03 104.38-20.03L104.38-20.03L104.38-20.03Q103.42-20.03 101.95-17.73L101.95-17.73L101.95-17.73Q100.48-15.42 99.10-11.84L99.10-11.84L99.10-11.84Q97.73-8.26 96.90-4.80L96.90-4.80L96.90-4.80Q96.19-1.79 95.26-0.74L95.26-0.74L95.26-0.74Q94.34 0.32 92.35 0.32L92.35 0.32ZM163.97-14.27L163.97-14.27Q164.80-14.27 165.28-13.50L165.28-13.50L165.28-13.50Q165.76-12.74 165.76-11.39L165.76-11.39L165.76-11.39Q165.76-8.83 164.54-7.42L164.54-7.42L164.54-7.42Q162.18-4.54 157.86-2.11L157.86-2.11L157.86-2.11Q153.54 0.32 148.61 0.32L148.61 0.32L148.61 0.32Q141.89 0.32 138.18-3.33L138.18-3.33L138.18-3.33Q134.46-6.98 134.46-13.31L134.46-13.31L134.46-13.31Q134.46-17.73 136.32-21.54L136.32-21.54L136.32-21.54Q138.18-25.34 141.47-27.58L141.47-27.58L141.47-27.58Q144.77-29.82 148.93-29.82L148.93-29.82L148.93-29.82Q152.64-29.82 154.88-27.62L154.88-27.62L154.88-27.62Q157.12-25.41 157.12-21.63L157.12-21.63L157.12-21.63Q157.12-17.22 153.95-14.05L153.95-14.05L153.95-14.05Q150.78-10.88 143.23-9.02L143.23-9.02L143.23-9.02Q144.83-6.08 149.31-6.08L149.31-6.08L149.31-6.08Q152.19-6.08 155.87-8.10L155.87-8.10L155.87-8.10Q159.55-10.11 162.24-13.38L162.24-13.38L162.24-13.38Q163.01-14.27 163.97-14.27L163.97-14.27ZM147.84-23.55L147.84-23.55Q145.47-23.55 143.84-20.80L143.84-20.80L143.84-20.80Q142.21-18.05 142.21-14.14L142.21-14.14L142.21-14.02L142.21-14.02Q145.98-14.91 148.16-16.70L148.16-16.70L148.16-16.70Q150.34-18.50 150.34-20.86L150.34-20.86L150.34-20.86Q150.34-22.08 149.66-22.82L149.66-22.82L149.66-22.82Q148.99-23.55 147.84-23.55L147.84-23.55ZM172.35 0.32L172.35 0.32Q169.98 0.32 168.96-0.74L168.96-0.74L168.96-0.74Q167.94-1.79 167.94-4.74L167.94-4.74L167.94-4.74Q167.94-6.72 168.35-9.82L168.35-9.82L168.35-9.82Q168.77-12.93 169.73-18.37L169.73-18.37L169.73-18.37Q171.39-28.42 172.35-35.78L172.35-35.78L172.35-35.78Q172.93-40.38 172.93-43.46L172.93-43.46L172.93-43.46Q172.93-46.34 170.82-46.34L170.82-46.34L170.82-46.34Q169.15-46.34 166.82-44.64L166.82-44.64L166.82-44.64Q164.48-42.94 161.66-39.23L161.66-39.23L161.66-39.23Q160.77-38.02 159.68-38.02L159.68-38.02L159.68-38.02Q158.78-38.02 158.11-38.88L158.11-38.88L158.11-38.88Q157.44-39.74 157.44-40.83L157.44-40.83L157.44-40.83Q157.44-41.86 157.86-42.91L157.86-42.91L157.86-42.91Q158.27-43.97 159.23-45.31L159.23-45.31L159.23-45.31Q162.30-49.60 166.08-51.94L166.08-51.94L166.08-51.94Q169.86-54.27 173.63-54.27L173.63-54.27L173.63-54.27Q177.15-54.27 179.04-52.03L179.04-52.03L179.04-52.03Q180.93-49.79 180.93-45.50L180.93-45.50L180.93-45.50Q180.93-43.78 180.61-41.44L180.61-41.44L180.61-41.44Q180.29-39.10 180.03-37.63L180.03-37.63L180.03-37.63Q179.78-36.16 179.65-35.58L179.65-35.58L179.65-35.58Q183.30-46.02 187.84-50.14L187.84-50.14L187.84-50.14Q192.38-54.27 197.82-54.27L197.82-54.27L197.82-54.27Q201.98-54.27 204.38-51.33L204.38-51.33L204.38-51.33Q206.78-48.38 206.78-43.01L206.78-43.01L206.78-43.01Q206.78-40.90 206.21-37.76L206.21-37.76L206.21-37.76Q209.41-46.59 213.70-50.43L213.70-50.43L213.70-50.43Q217.98-54.27 223.55-54.27L223.55-54.27L223.55-54.27Q228.03-54.27 230.43-51.39L230.43-51.39L230.43-51.39Q232.83-48.51 232.83-43.33L232.83-43.33L232.83-43.33Q232.83-40.51 232-36.48L232-36.48L228.10-18.18L228.10-18.18Q227.46-14.98 227.46-12.67L227.46-12.67L227.46-12.67Q227.46-9.98 228.70-8.64L228.70-8.64L228.70-8.64Q229.95-7.30 232.19-7.30L232.19-7.30L232.19-7.30Q234.30-7.30 236.32-8.70L236.32-8.70L236.32-8.70Q238.34-10.11 241.09-13.38L241.09-13.38L241.09-13.38Q241.86-14.27 242.82-14.27L242.82-14.27L242.82-14.27Q243.65-14.27 244.13-13.50L244.13-13.50L244.13-13.50Q244.61-12.74 244.61-11.39L244.61-11.39L244.61-11.39Q244.61-8.90 243.39-7.42L243.39-7.42L243.39-7.42Q240.06-3.39 236.80-1.54L236.80-1.54L236.80-1.54Q233.54 0.32 229.95 0.32L229.95 0.32L229.95 0.32Q224.51 0.32 221.44-2.91L221.44-2.91L221.44-2.91Q218.37-6.14 218.37-11.58L218.37-11.58L218.37-11.58Q218.37-15.36 219.90-22.53L219.90-22.53L222.46-34.24L222.46-34.24Q222.59-34.82 222.91-36.29L222.91-36.29L222.91-36.29Q223.23-37.76 223.42-39.07L223.42-39.07L223.42-39.07Q223.62-40.38 223.62-41.66L223.62-41.66L223.62-41.66Q223.62-43.90 222.75-45.02L222.75-45.02L222.75-45.02Q221.89-46.14 220.29-46.14L220.29-46.14L220.29-46.14Q217.28-46.14 213.98-42.27L213.98-42.27L213.98-42.27Q210.69-38.40 207.71-29.44L207.71-29.44L207.71-29.44Q204.74-20.48 202.88-6.14L202.88-6.14L202.88-6.14Q202.43-2.30 201.31-0.99L201.31-0.99L201.31-0.99Q200.19 0.32 197.70 0.32L197.70 0.32L197.70 0.32Q195.52 0.32 194.53-0.70L194.53-0.70L194.53-0.70Q193.54-1.73 193.54-4.54L193.54-4.54L193.54-4.54Q193.54-7.17 194.24-11.42L194.24-11.42L194.24-11.42Q194.94-15.68 196.03-21.44L196.03-21.44L196.03-21.44Q198.98-36.93 198.98-41.41L198.98-41.41L198.98-41.41Q198.98-43.84 198.05-44.99L198.05-44.99L198.05-44.99Q197.12-46.14 195.26-46.14L195.26-46.14L195.26-46.14Q192.13-46.14 188.80-42.59L188.80-42.59L188.80-42.59Q185.47-39.04 182.30-29.98L182.30-29.98L182.30-29.98Q179.14-20.93 177.02-5.50L177.02-5.50L177.02-5.50Q176.58-2.24 175.71-0.96L175.71-0.96L175.71-0.96Q174.85 0.32 172.35 0.32L172.35 0.32ZM267.97-14.27L267.97-14.27Q268.80-14.27 269.28-13.50L269.28-13.50L269.28-13.50Q269.76-12.74 269.76-11.39L269.76-11.39L269.76-11.39Q269.76-8.83 268.54-7.42L268.54-7.42L268.54-7.42Q266.18-4.54 261.86-2.11L261.86-2.11L261.86-2.11Q257.54 0.32 252.61 0.32L252.61 0.32L252.61 0.32Q245.89 0.32 242.18-3.33L242.18-3.33L242.18-3.33Q238.46-6.98 238.46-13.31L238.46-13.31L238.46-13.31Q238.46-17.73 240.32-21.54L240.32-21.54L240.32-21.54Q242.18-25.34 245.47-27.58L245.47-27.58L245.47-27.58Q248.77-29.82 252.93-29.82L252.93-29.82L252.93-29.82Q256.64-29.82 258.88-27.62L258.88-27.62L258.88-27.62Q261.12-25.41 261.12-21.63L261.12-21.63L261.12-21.63Q261.12-17.22 257.95-14.05L257.95-14.05L257.95-14.05Q254.78-10.88 247.23-9.02L247.23-9.02L247.23-9.02Q248.83-6.08 253.31-6.08L253.31-6.08L253.31-6.08Q256.19-6.08 259.87-8.10L259.87-8.10L259.87-8.10Q263.55-10.11 266.24-13.38L266.24-13.38L266.24-13.38Q267.01-14.27 267.97-14.27L267.97-14.27ZM251.84-23.55L251.84-23.55Q249.47-23.55 247.84-20.80L247.84-20.80L247.84-20.80Q246.21-18.05 246.21-14.14L246.21-14.14L246.21-14.02L246.21-14.02Q249.98-14.91 252.16-16.70L252.16-16.70L252.16-16.70Q254.34-18.50 254.34-20.86L254.34-20.86L254.34-20.86Q254.34-22.08 253.66-22.82L253.66-22.82L253.66-22.82Q252.99-23.55 251.84-23.55L251.84-23.55ZM269.12 0.32L269.12 0.32Q266.69 0.32 265.70-2.24L265.70-2.24L265.70-2.24Q264.70-4.80 264.70-10.43L264.70-10.43L264.70-10.43Q264.70-18.75 267.07-26.24L267.07-26.24L267.07-26.24Q267.65-28.10 268.96-28.96L268.96-28.96L268.96-28.96Q270.27-29.82 272.64-29.82L272.64-29.82L272.64-29.82Q273.92-29.82 274.43-29.50L274.43-29.50L274.43-29.50Q274.94-29.18 274.94-28.29L274.94-28.29L274.94-28.29Q274.94-27.26 273.98-23.68L273.98-23.68L273.98-23.68Q273.34-21.12 272.96-19.20L272.96-19.20L272.96-19.20Q272.58-17.28 272.32-14.46L272.32-14.46L272.32-14.46Q274.43-19.97 277.06-23.42L277.06-23.42L277.06-23.42Q279.68-26.88 282.21-28.35L282.21-28.35L282.21-28.35Q284.74-29.82 286.85-29.82L286.85-29.82L286.85-29.82Q291.01-29.82 291.01-25.66L291.01-25.66L291.01-25.66Q291.01-23.17 289.60-16.64L289.60-16.64L289.60-16.64Q288.38-11.07 288.38-9.28L288.38-9.28L288.38-9.28Q288.38-6.72 290.24-6.72L290.24-6.72L290.24-6.72Q291.52-6.72 293.28-8.29L293.28-8.29L293.28-8.29Q295.04-9.86 297.98-13.38L297.98-13.38L297.98-13.38Q298.75-14.27 299.71-14.27L299.71-14.27L299.71-14.27Q300.54-14.27 301.02-13.50L301.02-13.50L301.02-13.50Q301.50-12.74 301.50-11.39L301.50-11.39L301.50-11.39Q301.50-8.83 300.29-7.42L300.29-7.42L300.29-7.42Q297.54-4.03 294.37-1.86L294.37-1.86L294.37-1.86Q291.20 0.32 287.17 0.32L287.17 0.32L287.17 0.32Q283.90 0.32 282.24-1.57L282.24-1.57L282.24-1.57Q280.58-3.46 280.58-7.04L280.58-7.04L280.58-7.04Q280.58-8.83 281.47-13.44L281.47-13.44L281.47-13.44Q282.30-17.47 282.30-19.01L282.30-19.01L282.30-19.01Q282.30-20.03 281.60-20.03L281.60-20.03L281.60-20.03Q280.77-20.03 279.26-17.89L279.26-17.89L279.26-17.89Q277.76-15.74 276.19-12.22L276.19-12.22L276.19-12.22Q274.62-8.70 273.66-4.80L273.66-4.80L273.66-4.80Q272.96-1.79 272.03-0.74L272.03-0.74L272.03-0.74Q271.10 0.32 269.12 0.32L269.12 0.32ZM324.86-14.27L324.86-14.27Q325.70-14.27 326.18-13.50L326.18-13.50L326.18-13.50Q326.66-12.74 326.66-11.39L326.66-11.39L326.66-11.39Q326.66-8.83 325.44-7.42L325.44-7.42L325.44-7.42Q322.69-4.03 319.42-1.86L319.42-1.86L319.42-1.86Q316.16 0.32 311.94 0.32L311.94 0.32L311.94 0.32Q298.88 0.32 298.88-18.05L298.88-18.05L298.88-18.05Q298.88-20.86 299.07-23.74L299.07-23.74L296.58-23.74L296.58-23.74Q294.66-23.74 293.98-24.45L293.98-24.45L293.98-24.45Q293.31-25.15 293.31-26.69L293.31-26.69L293.31-26.69Q293.31-30.27 296.19-30.27L296.19-30.27L299.84-30.27L299.84-30.27Q300.93-37.31 303.17-43.14L303.17-43.14L303.17-43.14Q305.41-48.96 308.58-52.42L308.58-52.42L308.58-52.42Q311.74-55.87 315.39-55.87L315.39-55.87L315.39-55.87Q318.08-55.87 319.62-53.50L319.62-53.50L319.62-53.50Q321.15-51.14 321.15-47.55L321.15-47.55L321.15-47.55Q321.15-37.63 312.83-30.27L312.83-30.27L320.00-30.27L320.00-30.27Q321.02-30.27 321.47-29.82L321.47-29.82L321.47-29.82Q321.92-29.38 321.92-28.16L321.92-28.16L321.92-28.16Q321.92-23.74 314.69-23.74L314.69-23.74L306.88-23.74L306.88-23.74Q306.75-20.54 306.75-18.75L306.75-18.75L306.75-18.75Q306.75-12.10 308.32-9.41L308.32-9.41L308.32-9.41Q309.89-6.72 313.28-6.72L313.28-6.72L313.28-6.72Q316.03-6.72 318.14-8.38L318.14-8.38L318.14-8.38Q320.26-10.05 323.14-13.38L323.14-13.38L323.14-13.38Q323.90-14.27 324.86-14.27L324.86-14.27ZM313.66-49.73L313.66-49.73Q312.70-49.73 311.52-47.33L311.52-47.33L311.52-47.33Q310.34-44.93 309.28-40.67L309.28-40.67L309.28-40.67Q308.22-36.42 307.52-31.23L307.52-31.23L307.52-31.23Q311.30-34.50 313.18-38.56L313.18-38.56L313.18-38.56Q315.07-42.62 315.07-45.95L315.07-45.95L315.07-45.95Q315.07-49.73 313.66-49.73L313.66-49.73ZM354.11-19.65L354.11-19.65Q354.94-19.65 355.39-18.82L355.39-18.82L355.39-18.82Q355.84-17.98 355.84-16.70L355.84-16.70L355.84-16.70Q355.84-13.63 353.98-13.06L353.98-13.06L353.98-13.06Q350.14-11.71 345.54-11.52L345.54-11.52L345.54-11.52Q344.32-6.14 340.74-2.91L340.74-2.91L340.74-2.91Q337.15 0.32 332.61 0.32L332.61 0.32L332.61 0.32Q328.77 0.32 326.05-1.54L326.05-1.54L326.05-1.54Q323.33-3.39 321.92-6.46L321.92-6.46L321.92-6.46Q320.51-9.54 320.51-13.12L320.51-13.12L320.51-13.12Q320.51-17.98 322.37-21.79L322.37-21.79L322.37-21.79Q324.22-25.60 327.49-27.74L327.49-27.74L327.49-27.74Q330.75-29.89 334.72-29.89L334.72-29.89L334.72-29.89Q339.58-29.89 342.56-26.53L342.56-26.53L342.56-26.53Q345.54-23.17 346.05-18.24L346.05-18.24L346.05-18.24Q349.06-18.43 353.22-19.52L353.22-19.52L353.22-19.52Q353.73-19.65 354.11-19.65L354.11-19.65ZM333.12-6.46L333.12-6.46Q335.17-6.46 336.67-8.13L336.67-8.13L336.67-8.13Q338.18-9.79 338.69-12.93L338.69-12.93L338.69-12.93Q336.70-14.27 335.65-16.45L335.65-16.45L335.65-16.45Q334.59-18.62 334.59-21.06L334.59-21.06L334.59-21.06Q334.59-22.08 334.78-23.10L334.78-23.10L334.46-23.10L334.46-23.10Q331.90-23.10 330.21-20.64L330.21-20.64L330.21-20.64Q328.51-18.18 328.51-13.70L328.51-13.70L328.51-13.70Q328.51-10.18 329.89-8.32L329.89-8.32L329.89-8.32Q331.26-6.46 333.12-6.46L333.12-6.46ZM354.88 0.32L354.88 0.32Q352.45 0.32 351.46-2.24L351.46-2.24L351.46-2.24Q350.46-4.80 350.46-10.43L350.46-10.43L350.46-10.43Q350.46-18.75 352.83-26.24L352.83-26.24L352.83-26.24Q353.41-28.10 354.72-28.96L354.72-28.96L354.72-28.96Q356.03-29.82 358.40-29.82L358.40-29.82L358.40-29.82Q359.68-29.82 360.19-29.50L360.19-29.50L360.19-29.50Q360.70-29.18 360.70-28.29L360.70-28.29L360.70-28.29Q360.70-27.26 359.74-23.68L359.74-23.68L359.74-23.68Q359.10-21.12 358.72-19.20L358.72-19.20L358.72-19.20Q358.34-17.28 358.08-14.46L358.08-14.46L358.08-14.46Q360.19-19.97 362.82-23.42L362.82-23.42L362.82-23.42Q365.44-26.88 367.97-28.35L367.97-28.35L367.97-28.35Q370.50-29.82 372.61-29.82L372.61-29.82L372.61-29.82Q376.77-29.82 376.77-25.66L376.77-25.66L376.77-25.66Q376.77-24.83 376.19-21.63L376.19-21.63L376.19-21.63Q375.68-19.07 375.68-18.43L375.68-18.43L375.68-18.43Q375.68-16.19 377.28-16.19L377.28-16.19L377.28-16.19Q379.07-16.19 381.89-19.01L381.89-19.01L381.89-19.01Q382.72-19.84 383.62-19.84L383.62-19.84L383.62-19.84Q384.45-19.84 384.93-19.10L384.93-19.10L384.93-19.10Q385.41-18.37 385.41-17.15L385.41-17.15L385.41-17.15Q385.41-14.78 384.13-13.44L384.13-13.44L384.13-13.44Q382.34-11.58 379.94-10.27L379.94-10.27L379.94-10.27Q377.54-8.96 374.85-8.96L374.85-8.96L374.85-8.96Q371.46-8.96 369.70-10.69L369.70-10.69L369.70-10.69Q367.94-12.42 367.94-15.36L367.94-15.36L367.94-15.36Q367.94-16.32 368.13-17.28L368.13-17.28L368.13-17.28Q368.26-18.56 368.26-19.01L368.26-19.01L368.26-19.01Q368.26-20.03 367.55-20.03L367.55-20.03L367.55-20.03Q366.59-20.03 365.02-17.89L365.02-17.89L365.02-17.89Q363.46-15.74 361.92-12.22L361.92-12.22L361.92-12.22Q360.38-8.70 359.42-4.80L359.42-4.80L359.42-4.80Q358.72-1.79 357.79-0.74L357.79-0.74L357.79-0.74Q356.86 0.32 354.88 0.32L354.88 0.32ZM391.36 1.73L391.36 1.73Q388.03 1.73 386.27 0.19L386.27 0.19L386.27 0.19Q384.51-1.34 384.51-3.26L384.51-3.26L384.51-3.26Q384.51-4.93 385.73-6.14L385.73-6.14L385.73-6.14Q386.94-7.36 389.31-7.36L389.31-7.36L389.31-7.36Q390.14-7.36 391.26-7.20L391.26-7.20L391.26-7.20Q392.38-7.04 392.96-6.98L392.96-6.98L392.96-6.98Q392.90-8.64 392.22-10.11L392.22-10.11L392.22-10.11Q391.55-11.58 390.53-12.96L390.53-12.96L390.53-12.96Q389.50-14.34 388.61-15.36L388.61-15.36L388.61-15.36Q386.62-11.58 384.67-9.09L384.67-9.09L384.67-9.09Q382.72-6.59 380.42-4.35L380.42-4.35L380.42-4.35Q379.26-3.20 377.98-3.20L377.98-3.20L377.98-3.20Q376.96-3.20 376.32-3.94L376.32-3.94L376.32-3.94Q375.68-4.67 375.68-5.76L375.68-5.76L375.68-5.76Q375.68-7.04 376.58-8.13L376.58-8.13L377.41-9.15L377.41-9.15Q380.93-13.50 382.72-16.32L382.72-16.32L382.72-16.32Q383.81-18.18 385.28-21.28L385.28-21.28L385.28-21.28Q386.75-24.38 388.16-27.71L388.16-27.71L388.16-27.71Q389.38-30.53 393.22-30.53L393.22-30.53L393.22-30.53Q395.01-30.53 395.71-30.21L395.71-30.21L395.71-30.21Q396.42-29.89 396.42-29.18L396.42-29.18L396.42-29.18Q396.42-28.80 396.16-27.97L396.16-27.97L396.16-27.97Q395.90-27.14 395.46-26.30L395.46-26.30L395.46-26.30Q394.30-24 394.30-22.40L394.30-22.40L394.30-22.40Q394.30-21.44 394.98-20.29L394.98-20.29L394.98-20.29Q395.65-19.14 397.06-17.41L397.06-17.41L397.06-17.41Q399.10-14.72 400.16-12.83L400.16-12.83L400.16-12.83Q401.22-10.94 401.22-8.70L401.22-8.70L401.22-8.70Q401.22-8.06 401.09-6.91L401.09-6.91L401.09-6.91Q404.22-8.13 408.45-13.38L408.45-13.38L408.45-13.38Q409.22-14.27 410.18-14.27L410.18-14.27L410.18-14.27Q411.01-14.27 411.49-13.50L411.49-13.50L411.49-13.50Q411.97-12.74 411.97-11.39L411.97-11.39L411.97-11.39Q411.97-8.96 410.75-7.42L410.75-7.42L410.75-7.42Q407.55-3.46 404.64-2.02L404.64-2.02L404.64-2.02Q401.73-0.58 397.44-0.45L397.44-0.45L397.44-0.45Q394.88 1.73 391.36 1.73L391.36 1.73Z" fill="#444"></path></g></g><style>text {
  font-size: 64px;
  font-family: Arial Black;
  dominant-baseline: central;
  text-anchor: middle;
}</style></svg>